<svg width="56" height="56" viewBox="0 0 56 56" fill="none" xmlns="http://www.w3.org/2000/svg">
<path d="M26.2089 3.60489C26.9443 2.12477 29.0557 2.12478 29.7911 3.60489L35.7971 15.6929C36.0883 16.279 36.6479 16.6856 37.2953 16.7814L50.6477 18.7581C52.2826 19.0001 52.935 21.0082 51.7546 22.1649L42.1142 31.6124C41.6467 32.0705 41.433 32.7283 41.5419 33.3736L43.7881 46.6833C44.0632 48.313 42.355 49.554 40.8901 48.7888L28.926 42.5397C28.3458 42.2366 27.6542 42.2366 27.074 42.5396L15.11 48.7888C13.645 49.554 11.9368 48.313 12.2119 46.6833L14.4581 33.3736C14.567 32.7283 14.3533 32.0705 13.8858 31.6124L4.24539 22.1649C3.06497 21.0081 3.71743 19.0001 5.35235 18.7581L18.7047 16.7814C19.3521 16.6856 19.9117 16.279 20.2029 15.6929L26.2089 3.60489Z" fill="#FEA500"/>
</svg>
